<svg xmlns="http://www.w3.org/2000/svg" xmlns:xlink="http://www.w3.org/1999/xlink" width="435" zoomAndPan="magnify" viewBox="0 0 326.25 137.999998" height="184" preserveAspectRatio="xMidYMid meet" version="1.0"><defs><g/><clipPath id="f9eae18e37"><path d="M 0 0.160156 L 48 0.160156 L 48 111 L 0 111 Z M 0 0.160156 " clip-rule="nonzero"/></clipPath><clipPath id="7247cd7180"><path d="M 47 27 L 95.03125 27 L 95.03125 137.839844 L 47 137.839844 Z M 47 27 " clip-rule="nonzero"/></clipPath></defs><g clip-path="url(#f9eae18e37)"><path fill="#0097b2" d="M 47.683594 0.183594 L 47.683594 27.714844 L 23.84375 41.480469 L 23.84375 69.011719 L 47.683594 82.777344 L 47.683594 110.304688 L 0 82.777344 L 0 27.714844 Z M 47.683594 0.183594 " fill-opacity="1" fill-rule="evenodd"/></g><g clip-path="url(#7247cd7180)"><path fill="#0cc0df" d="M 47.683594 55.246094 L 71.527344 69.011719 L 71.527344 96.539062 L 47.683594 110.304688 L 47.683594 137.835938 L 95.371094 110.304688 L 95.371094 55.246094 L 47.683594 27.714844 Z M 47.683594 55.246094 " fill-opacity="1" fill-rule="evenodd"/></g><path fill="#5ce1e6" d="M 62.585938 8.785156 L 62.585938 29.433594 L 80.46875 39.757812 L 80.46875 19.109375 Z M 62.585938 8.785156 " fill-opacity="1" fill-rule="evenodd"/><g fill="#373737" fill-opacity="1"><g transform="translate(105.560232, 83.288055)"><g><path d="M 10.296875 -36.765625 L 27 -36.765625 L 27 -25.0625 L 18.078125 -25.0625 L 18.078125 -27.84375 L 10.296875 -27.84375 L 10.296875 -22.265625 L 27 -22.265625 L 27 -8.9375 C 27 -7.289062 26.59375 -5.789062 25.78125 -4.4375 C 24.976562 -3.09375 23.90625 -2.015625 22.5625 -1.203125 C 21.21875 -0.398438 19.722656 0 18.078125 0 L 1.359375 0 L 1.359375 -11.140625 L 10.296875 -11.140625 L 10.296875 -8.9375 L 18.078125 -8.9375 L 18.078125 -13.390625 L 10.296875 -13.390625 C 8.648438 -13.390625 7.148438 -13.785156 5.796875 -14.578125 C 4.453125 -15.367188 3.375 -16.4375 2.5625 -17.78125 C 1.757812 -19.125 1.359375 -20.617188 1.359375 -22.265625 L 1.359375 -27.84375 C 1.359375 -29.488281 1.757812 -30.984375 2.5625 -32.328125 C 3.375 -33.679688 4.453125 -34.757812 5.796875 -35.5625 C 7.148438 -36.363281 8.648438 -36.765625 10.296875 -36.765625 Z M 10.296875 -36.765625 "/></g></g></g><g fill="#373737" fill-opacity="1"><g transform="translate(134.132388, 83.288055)"><g><path d="M 22.0625 -27.84375 L 10.765625 -27.84375 L 10.765625 -22.265625 L 19.640625 -22.265625 L 19.640625 -13.390625 L 10.765625 -13.390625 L 10.765625 -8.9375 L 27.46875 -8.9375 L 27.46875 0 L 1.84375 0 L 1.84375 -36.765625 L 27.46875 -36.765625 L 27.46875 -33.25 C 27.46875 -31.78125 26.941406 -30.507812 25.890625 -29.4375 C 24.847656 -28.375 23.570312 -27.84375 22.0625 -27.84375 Z M 22.0625 -27.84375 "/></g></g></g><g fill="#373737" fill-opacity="1"><g transform="translate(162.179313, 83.288055)"><g><path d="M 24.0625 -36.765625 L 32.9375 -36.765625 L 20.703125 0 L 11.765625 0 L -0.46875 -36.765625 L 4.984375 -36.765625 C 6.035156 -36.765625 6.972656 -36.46875 7.796875 -35.875 C 8.617188 -35.28125 9.191406 -34.492188 9.515625 -33.515625 L 16.234375 -13.390625 Z M 24.0625 -36.765625 "/></g></g></g><g fill="#373737" fill-opacity="1"><g transform="translate(194.690638, 83.288055)"><g><path d="M 22.0625 -27.84375 L 10.765625 -27.84375 L 10.765625 -22.265625 L 19.640625 -22.265625 L 19.640625 -13.390625 L 10.765625 -13.390625 L 10.765625 -8.9375 L 27.46875 -8.9375 L 27.46875 0 L 1.84375 0 L 1.84375 -36.765625 L 27.46875 -36.765625 L 27.46875 -33.25 C 27.46875 -31.78125 26.941406 -30.507812 25.890625 -29.4375 C 24.847656 -28.375 23.570312 -27.84375 22.0625 -27.84375 Z M 22.0625 -27.84375 "/></g></g></g><g fill="#373737" fill-opacity="1"><g transform="translate(222.737562, 83.288055)"><g><path d="M 18.546875 -36.765625 L 27.46875 -36.765625 L 27.46875 0 L 18.546875 0 L 10.765625 -17.171875 L 10.765625 0 L 1.84375 0 L 1.84375 -36.765625 C 4.570312 -36.765625 7.070312 -36.03125 9.34375 -34.5625 C 11.625 -33.09375 13.328125 -31.132812 14.453125 -28.6875 L 18.546875 -19.59375 Z M 18.546875 -36.765625 "/></g></g></g><g fill="#373737" fill-opacity="1"><g transform="translate(107.817779, 105.846984)"><g><path d="M 9.3125 -5.25 C 9.3125 -4.488281 9.175781 -3.789062 8.90625 -3.15625 C 8.613281 -2.5 8.222656 -1.941406 7.734375 -1.484375 C 7.253906 -1.015625 6.6875 -0.65625 6.03125 -0.40625 C 5.363281 -0.132812 4.65625 0 3.90625 0 L 1.15625 0 L 1.15625 -10.515625 L 3.90625 -10.515625 C 4.65625 -10.515625 5.363281 -10.382812 6.03125 -10.125 C 6.6875 -9.851562 7.253906 -9.488281 7.734375 -9.03125 C 8.222656 -8.5625 8.613281 -8.007812 8.90625 -7.375 C 9.175781 -6.71875 9.3125 -6.007812 9.3125 -5.25 Z M 8.265625 -5.25 C 8.265625 -6.445312 7.84375 -7.445312 7 -8.25 C 6.175781 -9.03125 5.15625 -9.421875 3.9375 -9.421875 L 2.234375 -9.421875 L 2.234375 -1.078125 L 3.9375 -1.078125 C 5.15625 -1.078125 6.175781 -1.46875 7 -2.25 C 7.84375 -3.0625 8.265625 -4.0625 8.265625 -5.25 Z M 8.265625 -5.25 "/></g></g></g><g fill="#373737" fill-opacity="1"><g transform="translate(122.620121, 105.846984)"><g><path d="M 2.234375 0 L 1.15625 0 L 1.15625 -10.515625 L 2.234375 -10.515625 Z M 2.234375 0 "/></g></g></g><g fill="#373737" fill-opacity="1"><g transform="translate(130.809308, 105.846984)"><g><path d="M 4.078125 -4.953125 C 1.929688 -5.453125 0.859375 -6.375 0.859375 -7.71875 C 0.859375 -8.695312 1.207031 -9.4375 1.90625 -9.9375 C 2.59375 -10.414062 3.398438 -10.65625 4.328125 -10.65625 C 6.378906 -10.65625 7.59375 -9.894531 7.96875 -8.375 L 6.796875 -8.375 C 6.585938 -9.28125 5.765625 -9.734375 4.328125 -9.734375 C 3.316406 -9.734375 2.609375 -9.4375 2.203125 -8.84375 C 2.054688 -8.613281 1.984375 -8.328125 1.984375 -7.984375 C 1.984375 -7.335938 2.332031 -6.835938 3.03125 -6.484375 C 3.351562 -6.316406 4.050781 -6.09375 5.125 -5.8125 C 6.195312 -5.53125 6.976562 -5.222656 7.46875 -4.890625 C 8.132812 -4.410156 8.46875 -3.742188 8.46875 -2.890625 C 8.46875 -1.828125 8.050781 -1.023438 7.21875 -0.484375 C 6.519531 -0.0234375 5.65625 0.203125 4.625 0.203125 C 2.289062 0.203125 0.941406 -0.679688 0.578125 -2.453125 L 1.859375 -2.453125 C 2.046875 -1.335938 2.96875 -0.78125 4.625 -0.78125 C 5.789062 -0.78125 6.609375 -1.109375 7.078125 -1.765625 C 7.265625 -2.015625 7.359375 -2.363281 7.359375 -2.8125 C 7.359375 -3.25 7.1875 -3.601562 6.84375 -3.875 C 6.363281 -4.269531 5.441406 -4.628906 4.078125 -4.953125 Z M 4.078125 -4.953125 "/></g></g></g><g fill="#373737" fill-opacity="1"><g transform="translate(144.468258, 105.846984)"><g><path d="M 0.3125 -9.53125 L 0.3125 -10.53125 L 6.484375 -10.53125 L 6.484375 -9.53125 L 3.9375 -9.53125 L 3.9375 -0.03125 L 2.859375 -0.03125 L 2.859375 -9.53125 Z M 0.3125 -9.53125 "/></g></g></g><g fill="#373737" fill-opacity="1"><g transform="translate(156.056727, 105.846984)"><g><path d="M 2.234375 -5.1875 L 4.6875 -5.1875 C 5.289062 -5.1875 5.789062 -5.394531 6.1875 -5.8125 C 6.582031 -6.226562 6.78125 -6.75 6.78125 -7.375 C 6.78125 -7.976562 6.59375 -8.484375 6.21875 -8.890625 C 5.832031 -9.273438 5.320312 -9.46875 4.6875 -9.46875 L 2.234375 -9.46875 Z M 7.859375 -7.34375 C 7.859375 -6.425781 7.535156 -5.660156 6.890625 -5.046875 C 6.316406 -4.515625 5.625 -4.222656 4.8125 -4.171875 L 8.03125 0 L 6.578125 0 L 3.515625 -4.15625 L 2.234375 -4.15625 L 2.234375 0 L 1.15625 0 L 1.15625 -10.515625 L 4.53125 -10.515625 C 5.46875 -10.515625 6.253906 -10.21875 6.890625 -9.625 C 7.535156 -9.007812 7.859375 -8.25 7.859375 -7.34375 Z M 7.859375 -7.34375 "/></g></g></g><g fill="#373737" fill-opacity="1"><g transform="translate(169.25213, 105.846984)"><g><path d="M 10.421875 -5.28125 C 10.421875 -6.46875 9.992188 -7.484375 9.140625 -8.328125 C 8.296875 -9.171875 7.28125 -9.59375 6.09375 -9.59375 C 4.90625 -9.59375 3.890625 -9.171875 3.046875 -8.328125 C 2.203125 -7.484375 1.78125 -6.46875 1.78125 -5.28125 C 1.78125 -4.09375 2.203125 -3.070312 3.046875 -2.21875 C 3.890625 -1.375 4.90625 -0.953125 6.09375 -0.953125 C 7.28125 -0.953125 8.296875 -1.375 9.140625 -2.21875 C 9.992188 -3.070312 10.421875 -4.09375 10.421875 -5.28125 Z M 11.5 -5.28125 C 11.5 -4.539062 11.359375 -3.84375 11.078125 -3.1875 C 10.785156 -2.519531 10.398438 -1.945312 9.921875 -1.46875 C 9.421875 -0.96875 8.84375 -0.582031 8.1875 -0.3125 C 7.53125 -0.0195312 6.832031 0.125 6.09375 0.125 C 5.34375 0.125 4.644531 -0.0195312 4 -0.3125 C 3.34375 -0.582031 2.769531 -0.96875 2.28125 -1.46875 C 1.789062 -1.945312 1.40625 -2.519531 1.125 -3.1875 C 0.84375 -3.84375 0.703125 -4.539062 0.703125 -5.28125 C 0.703125 -6.019531 0.84375 -6.722656 1.125 -7.390625 C 1.40625 -8.046875 1.789062 -8.617188 2.28125 -9.109375 C 2.769531 -9.585938 3.34375 -9.972656 4 -10.265625 C 4.644531 -10.535156 5.34375 -10.671875 6.09375 -10.671875 C 6.832031 -10.671875 7.53125 -10.535156 8.1875 -10.265625 C 8.84375 -9.972656 9.421875 -9.585938 9.921875 -9.109375 C 10.398438 -8.617188 10.785156 -8.046875 11.078125 -7.390625 C 11.359375 -6.722656 11.5 -6.019531 11.5 -5.28125 Z M 11.5 -5.28125 "/></g></g></g><g fill="#373737" fill-opacity="1"><g transform="translate(186.233097, 105.846984)"><g/></g></g><g fill="#373737" fill-opacity="1"><g transform="translate(195.194847, 105.846984)"><g><path d="M 10.796875 -3.21875 C 10.410156 -2.207031 9.773438 -1.394531 8.890625 -0.78125 C 7.992188 -0.15625 7.007812 0.15625 5.9375 0.15625 C 4.476562 0.15625 3.234375 -0.378906 2.203125 -1.453125 C 1.203125 -2.503906 0.703125 -3.765625 0.703125 -5.234375 C 0.703125 -5.960938 0.832031 -6.660156 1.09375 -7.328125 C 1.363281 -7.972656 1.734375 -8.546875 2.203125 -9.046875 C 3.234375 -10.109375 4.476562 -10.640625 5.9375 -10.640625 C 7.007812 -10.640625 7.988281 -10.335938 8.875 -9.734375 C 9.757812 -9.117188 10.394531 -8.3125 10.78125 -7.3125 L 9.59375 -7.3125 C 9.03125 -8.351562 8.1875 -9.039062 7.0625 -9.375 C 6.6875 -9.476562 6.257812 -9.53125 5.78125 -9.53125 C 5.289062 -9.53125 4.796875 -9.414062 4.296875 -9.1875 C 3.785156 -8.957031 3.347656 -8.644531 2.984375 -8.25 C 2.179688 -7.414062 1.78125 -6.410156 1.78125 -5.234375 C 1.78125 -4.078125 2.179688 -3.078125 2.984375 -2.234375 C 3.796875 -1.378906 4.78125 -0.953125 5.9375 -0.953125 C 6.71875 -0.953125 7.4375 -1.160156 8.09375 -1.578125 C 8.75 -1.984375 9.253906 -2.53125 9.609375 -3.21875 Z M 10.796875 -3.21875 "/></g></g></g><g fill="#373737" fill-opacity="1"><g transform="translate(211.248739, 105.846984)"><g><path d="M 2.234375 -1.078125 L 6 -1.078125 L 6 0 L 1.15625 0 L 1.15625 -10.515625 L 2.234375 -10.515625 Z M 2.234375 -1.078125 "/></g></g></g><g fill="#373737" fill-opacity="1"><g transform="translate(222.342764, 105.846984)"><g><path d="M 10.421875 -5.28125 C 10.421875 -6.46875 9.992188 -7.484375 9.140625 -8.328125 C 8.296875 -9.171875 7.28125 -9.59375 6.09375 -9.59375 C 4.90625 -9.59375 3.890625 -9.171875 3.046875 -8.328125 C 2.203125 -7.484375 1.78125 -6.46875 1.78125 -5.28125 C 1.78125 -4.09375 2.203125 -3.070312 3.046875 -2.21875 C 3.890625 -1.375 4.90625 -0.953125 6.09375 -0.953125 C 7.28125 -0.953125 8.296875 -1.375 9.140625 -2.21875 C 9.992188 -3.070312 10.421875 -4.09375 10.421875 -5.28125 Z M 11.5 -5.28125 C 11.5 -4.539062 11.359375 -3.84375 11.078125 -3.1875 C 10.785156 -2.519531 10.398438 -1.945312 9.921875 -1.46875 C 9.421875 -0.96875 8.84375 -0.582031 8.1875 -0.3125 C 7.53125 -0.0195312 6.832031 0.125 6.09375 0.125 C 5.34375 0.125 4.644531 -0.0195312 4 -0.3125 C 3.34375 -0.582031 2.769531 -0.96875 2.28125 -1.46875 C 1.789062 -1.945312 1.40625 -2.519531 1.125 -3.1875 C 0.84375 -3.84375 0.703125 -4.539062 0.703125 -5.28125 C 0.703125 -6.019531 0.84375 -6.722656 1.125 -7.390625 C 1.40625 -8.046875 1.789062 -8.617188 2.28125 -9.109375 C 2.769531 -9.585938 3.34375 -9.972656 4 -10.265625 C 4.644531 -10.535156 5.34375 -10.671875 6.09375 -10.671875 C 6.832031 -10.671875 7.53125 -10.535156 8.1875 -10.265625 C 8.84375 -9.972656 9.421875 -9.585938 9.921875 -9.109375 C 10.398438 -8.617188 10.785156 -8.046875 11.078125 -7.390625 C 11.359375 -6.722656 11.5 -6.019531 11.5 -5.28125 Z M 11.5 -5.28125 "/></g></g></g><g fill="#373737" fill-opacity="1"><g transform="translate(239.323731, 105.846984)"><g><path d="M 0.3125 -9.53125 L 0.3125 -10.53125 L 6.484375 -10.53125 L 6.484375 -9.53125 L 3.9375 -9.53125 L 3.9375 -0.03125 L 2.859375 -0.03125 L 2.859375 -9.53125 Z M 0.3125 -9.53125 "/></g></g></g><g fill="#373737" fill-opacity="1"><g transform="translate(250.912197, 105.846984)"><g><path d="M 2.234375 0 L 1.15625 0 L 1.15625 -10.515625 L 2.234375 -10.515625 L 2.234375 -5.78125 L 7.015625 -5.78125 L 7.015625 -10.515625 L 8.09375 -10.515625 L 8.09375 0 L 7.015625 0 L 7.015625 -4.703125 L 2.234375 -4.703125 Z M 2.234375 0 "/></g></g></g><g fill="#373737" fill-opacity="1"><g transform="translate(264.957427, 105.846984)"><g><path d="M 2.234375 0 L 1.15625 0 L 1.15625 -10.515625 L 2.234375 -10.515625 Z M 2.234375 0 "/></g></g></g><g fill="#373737" fill-opacity="1"><g transform="translate(273.146611, 105.846984)"><g><path d="M 2.234375 -7.734375 L 2.234375 0 L 1.15625 0 L 1.15625 -11.171875 L 7.0625 -2.78125 L 7.0625 -10.515625 L 8.140625 -10.515625 L 8.140625 0.65625 Z M 2.234375 -7.734375 "/></g></g></g><g fill="#373737" fill-opacity="1"><g transform="translate(287.238192, 105.846984)"><g><path d="M 11.53125 -4.921875 L 11.421875 -4.265625 C 11.191406 -2.984375 10.566406 -1.929688 9.546875 -1.109375 C 8.523438 -0.285156 7.378906 0.125 6.109375 0.125 C 5.359375 0.125 4.65625 -0.0195312 4 -0.3125 C 3.34375 -0.582031 2.769531 -0.96875 2.28125 -1.46875 C 1.789062 -1.945312 1.40625 -2.519531 1.125 -3.1875 C 0.84375 -3.84375 0.703125 -4.546875 0.703125 -5.296875 C 0.703125 -6.035156 0.84375 -6.738281 1.125 -7.40625 C 1.40625 -8.0625 1.789062 -8.632812 2.28125 -9.125 C 2.769531 -9.613281 3.34375 -10.003906 4 -10.296875 C 4.65625 -10.566406 5.320312 -10.703125 6 -10.703125 C 7.25 -10.703125 8.351562 -10.347656 9.3125 -9.640625 C 10.28125 -8.929688 10.941406 -7.992188 11.296875 -6.828125 L 10.15625 -6.828125 C 9.820312 -7.679688 9.289062 -8.363281 8.5625 -8.875 C 7.820312 -9.375 7.003906 -9.625 6.109375 -9.625 C 4.910156 -9.625 3.890625 -9.203125 3.046875 -8.359375 C 2.203125 -7.515625 1.78125 -6.492188 1.78125 -5.296875 C 1.78125 -4.109375 2.203125 -3.085938 3.046875 -2.234375 C 3.878906 -1.378906 4.898438 -0.953125 6.109375 -0.953125 C 7.054688 -0.953125 7.921875 -1.226562 8.703125 -1.78125 C 9.472656 -2.332031 10.015625 -3.0625 10.328125 -3.96875 L 6.0625 -3.96875 L 6.0625 -4.921875 Z M 11.53125 -4.921875 "/></g></g></g></svg>